<svg xmlns="http://www.w3.org/2000/svg" xmlns:xlink="http://www.w3.org/1999/xlink" version="1.1" class="marks" width="619" height="502" viewBox="0 0 619 502"><rect width="619" height="502" fill="white"/><g fill="none" stroke-miterlimit="10" transform="translate(226,5)"><g class="mark-group role-frame root" role="graphics-object" aria-roledescription="group mark container"><g transform="translate(0,0)"><path class="background" aria-hidden="true" d="M0.5,0.5h300v460h-300Z" stroke="#ddd"/><g><g class="mark-group role-axis" aria-hidden="true"><g transform="translate(0.5,460.5)"><path class="background" aria-hidden="true" d="M0,0h0v0h0Z" pointer-events="none"/><g><g class="mark-rule role-axis-grid" pointer-events="none"><line transform="translate(0,0)" x2="0" y2="-460" stroke="#ddd" stroke-width="1" opacity="1"/><line transform="translate(38,0)" x2="0" y2="-460" stroke="#ddd" stroke-width="1" opacity="1"/><line transform="translate(75,0)" x2="0" y2="-460" stroke="#ddd" stroke-width="1" opacity="1"/><line transform="translate(113,0)" x2="0" y2="-460" stroke="#ddd" stroke-width="1" opacity="1"/><line transform="translate(150,0)" x2="0" y2="-460" stroke="#ddd" stroke-width="1" opacity="1"/><line transform="translate(188,0)" x2="0" y2="-460" stroke="#ddd" stroke-width="1" opacity="1"/><line transform="translate(225,0)" x2="0" y2="-460" stroke="#ddd" stroke-width="1" opacity="1"/><line transform="translate(263,0)" x2="0" y2="-460" stroke="#ddd" stroke-width="1" opacity="1"/><line transform="translate(300,0)" x2="0" y2="-460" stroke="#ddd" stroke-width="1" opacity="1"/></g></g><path class="foreground" aria-hidden="true" d="" pointer-events="none" display="none"/></g></g><g class="mark-group role-axis" role="graphics-symbol" aria-roledescription="axis" aria-label="X-axis titled 'rows loaded' for a linear scale with values from 0 to 800,000"><g transform="translate(0.5,460.5)"><path class="background" aria-hidden="true" d="M0,0h0v0h0Z" pointer-events="none"/><g><g class="mark-rule role-axis-tick" pointer-events="none"><line transform="translate(0,0)" x2="0" y2="5" stroke="#888" stroke-width="1" opacity="1"/><line transform="translate(38,0)" x2="0" y2="5" stroke="#888" stroke-width="1" opacity="1"/><line transform="translate(75,0)" x2="0" y2="5" stroke="#888" stroke-width="1" opacity="1"/><line transform="translate(113,0)" x2="0" y2="5" stroke="#888" stroke-width="1" opacity="1"/><line transform="translate(150,0)" x2="0" y2="5" stroke="#888" stroke-width="1" opacity="1"/><line transform="translate(188,0)" x2="0" y2="5" stroke="#888" stroke-width="1" opacity="1"/><line transform="translate(225,0)" x2="0" y2="5" stroke="#888" stroke-width="1" opacity="1"/><line transform="translate(263,0)" x2="0" y2="5" stroke="#888" stroke-width="1" opacity="1"/><line transform="translate(300,0)" x2="0" y2="5" stroke="#888" stroke-width="1" opacity="1"/></g><g class="mark-text role-axis-label" pointer-events="none"><text text-anchor="start" transform="translate(0,15)" font-family="sans-serif" font-size="10px" fill="#000" opacity="1">0</text><text text-anchor="middle" transform="translate(37.5,15)" font-family="sans-serif" font-size="10px" fill="#000" opacity="0">100,000</text><text text-anchor="middle" transform="translate(75,15)" font-family="sans-serif" font-size="10px" fill="#000" opacity="1">200,000</text><text text-anchor="middle" transform="translate(112.5,15)" font-family="sans-serif" font-size="10px" fill="#000" opacity="0">300,000</text><text text-anchor="middle" transform="translate(150,15)" font-family="sans-serif" font-size="10px" fill="#000" opacity="1">400,000</text><text text-anchor="middle" transform="translate(187.5,15)" font-family="sans-serif" font-size="10px" fill="#000" opacity="0">500,000</text><text text-anchor="middle" transform="translate(225,15)" font-family="sans-serif" font-size="10px" fill="#000" opacity="1">600,000</text><text text-anchor="middle" transform="translate(262.5,15)" font-family="sans-serif" font-size="10px" fill="#000" opacity="0">700,000</text><text text-anchor="end" transform="translate(300,15)" font-family="sans-serif" font-size="10px" fill="#000" opacity="1">800,000</text></g><g class="mark-rule role-axis-domain" pointer-events="none"><line transform="translate(0,0)" x2="300" y2="0" stroke="#888" stroke-width="1" opacity="1"/></g><g class="mark-text role-axis-title" pointer-events="none"><text text-anchor="middle" transform="translate(150,30)" font-family="sans-serif" font-size="11px" font-weight="bold" fill="#000" opacity="1">rows loaded</text></g></g><path class="foreground" aria-hidden="true" d="" pointer-events="none" display="none"/></g></g><g class="mark-group role-axis" role="graphics-symbol" aria-roledescription="axis" aria-label="Y-axis titled 'Agency' for a discrete scale with 23 values: TRAFFIC, DEPARTMENT OF TRANSPORTATION, DEPARTMENT OF SANITATION, POLICE DEPARTMENT, TRANSIT AUTHORITY, ending with TRIBOROUGH BRIDGE AND TUNNEL POLICE"><g transform="translate(0.5,0.5)"><path class="background" aria-hidden="true" d="M0,0h0v0h0Z" pointer-events="none"/><g><g class="mark-rule role-axis-tick" pointer-events="none"><line transform="translate(0,10)" x2="-5" y2="0" stroke="#888" stroke-width="1" opacity="1"/><line transform="translate(0,30)" x2="-5" y2="0" stroke="#888" stroke-width="1" opacity="1"/><line transform="translate(0,50)" x2="-5" y2="0" stroke="#888" stroke-width="1" opacity="1"/><line transform="translate(0,70)" x2="-5" y2="0" stroke="#888" stroke-width="1" opacity="1"/><line transform="translate(0,90)" x2="-5" y2="0" stroke="#888" stroke-width="1" opacity="1"/><line transform="translate(0,110)" x2="-5" y2="0" stroke="#888" stroke-width="1" opacity="1"/><line transform="translate(0,130)" x2="-5" y2="0" stroke="#888" stroke-width="1" opacity="1"/><line transform="translate(0,150)" x2="-5" y2="0" stroke="#888" stroke-width="1" opacity="1"/><line transform="translate(0,170)" x2="-5" y2="0" stroke="#888" stroke-width="1" opacity="1"/><line transform="translate(0,190)" x2="-5" y2="0" stroke="#888" stroke-width="1" opacity="1"/><line transform="translate(0,210)" x2="-5" y2="0" stroke="#888" stroke-width="1" opacity="1"/><line transform="translate(0,230)" x2="-5" y2="0" stroke="#888" stroke-width="1" opacity="1"/><line transform="translate(0,250)" x2="-5" y2="0" stroke="#888" stroke-width="1" opacity="1"/><line transform="translate(0,270)" x2="-5" y2="0" stroke="#888" stroke-width="1" opacity="1"/><line transform="translate(0,290)" x2="-5" y2="0" stroke="#888" stroke-width="1" opacity="1"/><line transform="translate(0,310)" x2="-5" y2="0" stroke="#888" stroke-width="1" opacity="1"/><line transform="translate(0,330)" x2="-5" y2="0" stroke="#888" stroke-width="1" opacity="1"/><line transform="translate(0,350)" x2="-5" y2="0" stroke="#888" stroke-width="1" opacity="1"/><line transform="translate(0,370)" x2="-5" y2="0" stroke="#888" stroke-width="1" opacity="1"/><line transform="translate(0,390)" x2="-5" y2="0" stroke="#888" stroke-width="1" opacity="1"/><line transform="translate(0,410)" x2="-5" y2="0" stroke="#888" stroke-width="1" opacity="1"/><line transform="translate(0,430)" x2="-5" y2="0" stroke="#888" stroke-width="1" opacity="1"/><line transform="translate(0,450)" x2="-5" y2="0" stroke="#888" stroke-width="1" opacity="1"/></g><g class="mark-text role-axis-label" pointer-events="none"><text text-anchor="end" transform="translate(-7,13)" font-family="sans-serif" font-size="10px" fill="#000" opacity="1">TRAFFIC</text><text text-anchor="end" transform="translate(-7,33)" font-family="sans-serif" font-size="10px" fill="#000" opacity="1">DEPARTMENT OF TRANSPO…</text><text text-anchor="end" transform="translate(-7,53)" font-family="sans-serif" font-size="10px" fill="#000" opacity="1">DEPARTMENT OF SANITAT…</text><text text-anchor="end" transform="translate(-7,73)" font-family="sans-serif" font-size="10px" fill="#000" opacity="1">POLICE DEPARTMENT</text><text text-anchor="end" transform="translate(-7,93)" font-family="sans-serif" font-size="10px" fill="#000" opacity="1">TRANSIT AUTHORITY</text><text text-anchor="end" transform="translate(-7,113)" font-family="sans-serif" font-size="10px" fill="#000" opacity="1">PARKS DEPARTMENT</text><text text-anchor="end" transform="translate(-7,133)" font-family="sans-serif" font-size="10px" fill="#000" opacity="1">ROOSEVELT ISLAND SECU…</text><text text-anchor="end" transform="translate(-7,153)" font-family="sans-serif" font-size="10px" fill="#000" opacity="1">HEALTH AND HOSPITAL C…</text><text text-anchor="end" transform="translate(-7,173)" font-family="sans-serif" font-size="10px" fill="#000" opacity="1">NYC OFFICE OF THE SHE…</text><text text-anchor="end" transform="translate(-7,193)" font-family="sans-serif" font-size="10px" fill="#000" opacity="1">LONG ISLAND RAILROAD</text><text text-anchor="end" transform="translate(-7,213)" font-family="sans-serif" font-size="10px" fill="#000" opacity="1">PORT AUTHORITY</text><text text-anchor="end" transform="translate(-7,233)" font-family="sans-serif" font-size="10px" fill="#000" opacity="1">NYS COURT OFFICERS</text><text text-anchor="end" transform="translate(-7,253)" font-family="sans-serif" font-size="10px" fill="#000" opacity="1">FIRE DEPARTMENT</text><text text-anchor="end" transform="translate(-7,273)" font-family="sans-serif" font-size="10px" fill="#000" opacity="1">CON RAIL</text><text text-anchor="end" transform="translate(-7,293)" font-family="sans-serif" font-size="10px" fill="#000" opacity="1">NYC TRANSIT AUTHORITY…</text><text text-anchor="end" transform="translate(-7,313)" font-family="sans-serif" font-size="10px" fill="#000" opacity="1">OTHER/UNKNOWN AGENCIES</text><text text-anchor="end" transform="translate(-7,333)" font-family="sans-serif" font-size="10px" fill="#000" opacity="1">DEPARTMENT OF CORRECT…</text><text text-anchor="end" transform="translate(-7,353)" font-family="sans-serif" font-size="10px" fill="#000" opacity="1">HEALTH DEPARTMENT POL…</text><text text-anchor="end" transform="translate(-7,373)" font-family="sans-serif" font-size="10px" fill="#000" opacity="1">NYS OFFICE OF MENTAL …</text><text text-anchor="end" transform="translate(-7,393)" font-family="sans-serif" font-size="10px" fill="#000" opacity="1">NYS PARKS POLICE</text><text text-anchor="end" transform="translate(-7,413)" font-family="sans-serif" font-size="10px" fill="#000" opacity="1">AMTRAK RAILROAD POLICE</text><text text-anchor="end" transform="translate(-7,433)" font-family="sans-serif" font-size="10px" fill="#000" opacity="1">TAXI AND LIMOUSINE CO…</text><text text-anchor="end" transform="translate(-7,453)" font-family="sans-serif" font-size="10px" fill="#000" opacity="1">TRIBOROUGH BRIDGE AND…</text></g><g class="mark-rule role-axis-domain" pointer-events="none"><line transform="translate(0,0)" x2="0" y2="460" stroke="#888" stroke-width="1" opacity="1"/></g><g class="mark-text role-axis-title" pointer-events="none"><text text-anchor="middle" transform="translate(-204,230) rotate(-90) translate(0,-2)" font-family="sans-serif" font-size="11px" font-weight="bold" fill="#000" opacity="1">Agency</text></g></g><path class="foreground" aria-hidden="true" d="" pointer-events="none" display="none"/></g></g><g class="mark-symbol role-mark view_27_marks" role="graphics-object" aria-roledescription="symbol mark container"><path aria-label="rows loaded: 137; Agency: PORT AUTHORITY" role="graphics-symbol" aria-roledescription="point" transform="translate(0.051375,210)" d="M-2.739,0L0,-2.739L2.739,0L0,2.739Z" stroke="#4c78a8" stroke-width="2" opacity="0.7"/><path aria-label="rows loaded: 137; Agency: PORT AUTHORITY" role="graphics-symbol" aria-roledescription="point" transform="translate(0.051375,210)" d="M-2.739,0L0,-2.739L2.739,0L0,2.739Z" stroke="#4c78a8" stroke-width="2" opacity="0.7"/><path aria-label="rows loaded: 137; Agency: PORT AUTHORITY" role="graphics-symbol" aria-roledescription="point" transform="translate(0.051375,210)" d="M-2.739,0L0,-2.739L2.739,0L0,2.739Z" stroke="#4c78a8" stroke-width="2" opacity="0.7"/><path aria-label="rows loaded: 137; Agency: PORT AUTHORITY" role="graphics-symbol" aria-roledescription="point" transform="translate(0.051375,210)" d="M-2.739,0L0,-2.739L2.739,0L0,2.739Z" stroke="#4c78a8" stroke-width="2" opacity="0.7"/><path aria-label="rows loaded: 137; Agency: PORT AUTHORITY" role="graphics-symbol" aria-roledescription="point" transform="translate(0.051375,210)" d="M-2.739,0L0,-2.739L2.739,0L0,2.739Z" stroke="#4c78a8" stroke-width="2" opacity="0.7"/><path aria-label="rows loaded: 1; Agency: TRIBOROUGH BRIDGE AND TUNNEL POLICE" role="graphics-symbol" aria-roledescription="point" transform="translate(0.000375,450)" d="M-2.739,0L0,-2.739L2.739,0L0,2.739Z" stroke="#4c78a8" stroke-width="2" opacity="0.7"/><path aria-label="rows loaded: 1; Agency: TRIBOROUGH BRIDGE AND TUNNEL POLICE" role="graphics-symbol" aria-roledescription="point" transform="translate(0.000375,450)" d="M-2.739,0L0,-2.739L2.739,0L0,2.739Z" stroke="#4c78a8" stroke-width="2" opacity="0.7"/><path aria-label="rows loaded: 1; Agency: TRIBOROUGH BRIDGE AND TUNNEL POLICE" role="graphics-symbol" aria-roledescription="point" transform="translate(0.000375,450)" d="M-2.739,0L0,-2.739L2.739,0L0,2.739Z" stroke="#4c78a8" stroke-width="2" opacity="0.7"/><path aria-label="rows loaded: 1; Agency: TRIBOROUGH BRIDGE AND TUNNEL POLICE" role="graphics-symbol" aria-roledescription="point" transform="translate(0.000375,450)" d="M-2.739,0L0,-2.739L2.739,0L0,2.739Z" stroke="#4c78a8" stroke-width="2" opacity="0.7"/><path aria-label="rows loaded: 1; Agency: TRIBOROUGH BRIDGE AND TUNNEL POLICE" role="graphics-symbol" aria-roledescription="point" transform="translate(0.000375,450)" d="M-2.739,0L0,-2.739L2.739,0L0,2.739Z" stroke="#4c78a8" stroke-width="2" opacity="0.7"/><path aria-label="rows loaded: 56; Agency: CON RAIL" role="graphics-symbol" aria-roledescription="point" transform="translate(0.020999999999999998,270)" d="M-2.739,0L0,-2.739L2.739,0L0,2.739Z" stroke="#4c78a8" stroke-width="2" opacity="0.7"/><path aria-label="rows loaded: 56; Agency: CON RAIL" role="graphics-symbol" aria-roledescription="point" transform="translate(0.020999999999999998,270)" d="M-2.739,0L0,-2.739L2.739,0L0,2.739Z" stroke="#4c78a8" stroke-width="2" opacity="0.7"/><path aria-label="rows loaded: 56; Agency: CON RAIL" role="graphics-symbol" aria-roledescription="point" transform="translate(0.020999999999999998,270)" d="M-2.739,0L0,-2.739L2.739,0L0,2.739Z" stroke="#4c78a8" stroke-width="2" opacity="0.7"/><path aria-label="rows loaded: 56; Agency: CON RAIL" role="graphics-symbol" aria-roledescription="point" transform="translate(0.020999999999999998,270)" d="M-2.739,0L0,-2.739L2.739,0L0,2.739Z" stroke="#4c78a8" stroke-width="2" opacity="0.7"/><path aria-label="rows loaded: 56; Agency: CON RAIL" role="graphics-symbol" aria-roledescription="point" transform="translate(0.020999999999999998,270)" d="M-2.739,0L0,-2.739L2.739,0L0,2.739Z" stroke="#4c78a8" stroke-width="2" opacity="0.7"/><path aria-label="rows loaded: 68; Agency: FIRE DEPARTMENT" role="graphics-symbol" aria-roledescription="point" transform="translate(0.025500000000000002,250)" d="M-2.739,0L0,-2.739L2.739,0L0,2.739Z" stroke="#4c78a8" stroke-width="2" opacity="0.7"/><path aria-label="rows loaded: 68; Agency: FIRE DEPARTMENT" role="graphics-symbol" aria-roledescription="point" transform="translate(0.025500000000000002,250)" d="M-2.739,0L0,-2.739L2.739,0L0,2.739Z" stroke="#4c78a8" stroke-width="2" opacity="0.7"/><path aria-label="rows loaded: 68; Agency: FIRE DEPARTMENT" role="graphics-symbol" aria-roledescription="point" transform="translate(0.025500000000000002,250)" d="M-2.739,0L0,-2.739L2.739,0L0,2.739Z" stroke="#4c78a8" stroke-width="2" opacity="0.7"/><path aria-label="rows loaded: 68; Agency: FIRE DEPARTMENT" role="graphics-symbol" aria-roledescription="point" transform="translate(0.025500000000000002,250)" d="M-2.739,0L0,-2.739L2.739,0L0,2.739Z" stroke="#4c78a8" stroke-width="2" opacity="0.7"/><path aria-label="rows loaded: 68; Agency: FIRE DEPARTMENT" role="graphics-symbol" aria-roledescription="point" transform="translate(0.025500000000000002,250)" d="M-2.739,0L0,-2.739L2.739,0L0,2.739Z" stroke="#4c78a8" stroke-width="2" opacity="0.7"/><path aria-label="rows loaded: 2; Agency: TAXI AND LIMOUSINE COMMISSION" role="graphics-symbol" aria-roledescription="point" transform="translate(0.00075,430)" d="M-2.739,0L0,-2.739L2.739,0L0,2.739Z" stroke="#4c78a8" stroke-width="2" opacity="0.7"/><path aria-label="rows loaded: 2; Agency: TAXI AND LIMOUSINE COMMISSION" role="graphics-symbol" aria-roledescription="point" transform="translate(0.00075,430)" d="M-2.739,0L0,-2.739L2.739,0L0,2.739Z" stroke="#4c78a8" stroke-width="2" opacity="0.7"/><path aria-label="rows loaded: 2; Agency: TAXI AND LIMOUSINE COMMISSION" role="graphics-symbol" aria-roledescription="point" transform="translate(0.00075,430)" d="M-2.739,0L0,-2.739L2.739,0L0,2.739Z" stroke="#4c78a8" stroke-width="2" opacity="0.7"/><path aria-label="rows loaded: 2; Agency: TAXI AND LIMOUSINE COMMISSION" role="graphics-symbol" aria-roledescription="point" transform="translate(0.00075,430)" d="M-2.739,0L0,-2.739L2.739,0L0,2.739Z" stroke="#4c78a8" stroke-width="2" opacity="0.7"/><path aria-label="rows loaded: 2; Agency: TAXI AND LIMOUSINE COMMISSION" role="graphics-symbol" aria-roledescription="point" transform="translate(0.00075,430)" d="M-2.739,0L0,-2.739L2.739,0L0,2.739Z" stroke="#4c78a8" stroke-width="2" opacity="0.7"/><path aria-label="rows loaded: 2; Agency: AMTRAK RAILROAD POLICE" role="graphics-symbol" aria-roledescription="point" transform="translate(0.00075,410)" d="M-2.739,0L0,-2.739L2.739,0L0,2.739Z" stroke="#4c78a8" stroke-width="2" opacity="0.7"/><path aria-label="rows loaded: 2; Agency: AMTRAK RAILROAD POLICE" role="graphics-symbol" aria-roledescription="point" transform="translate(0.00075,410)" d="M-2.739,0L0,-2.739L2.739,0L0,2.739Z" stroke="#4c78a8" stroke-width="2" opacity="0.7"/><path aria-label="rows loaded: 2; Agency: AMTRAK RAILROAD POLICE" role="graphics-symbol" aria-roledescription="point" transform="translate(0.00075,410)" d="M-2.739,0L0,-2.739L2.739,0L0,2.739Z" stroke="#4c78a8" stroke-width="2" opacity="0.7"/><path aria-label="rows loaded: 2; Agency: AMTRAK RAILROAD POLICE" role="graphics-symbol" aria-roledescription="point" transform="translate(0.00075,410)" d="M-2.739,0L0,-2.739L2.739,0L0,2.739Z" stroke="#4c78a8" stroke-width="2" opacity="0.7"/><path aria-label="rows loaded: 2; Agency: AMTRAK RAILROAD POLICE" role="graphics-symbol" aria-roledescription="point" transform="translate(0.00075,410)" d="M-2.739,0L0,-2.739L2.739,0L0,2.739Z" stroke="#4c78a8" stroke-width="2" opacity="0.7"/><path aria-label="rows loaded: 284; Agency: PARKS DEPARTMENT" role="graphics-symbol" aria-roledescription="point" transform="translate(0.1065,110)" d="M-2.739,0L0,-2.739L2.739,0L0,2.739Z" stroke="#4c78a8" stroke-width="2" opacity="0.7"/><path aria-label="rows loaded: 284; Agency: PARKS DEPARTMENT" role="graphics-symbol" aria-roledescription="point" transform="translate(0.1065,110)" d="M-2.739,0L0,-2.739L2.739,0L0,2.739Z" stroke="#4c78a8" stroke-width="2" opacity="0.7"/><path aria-label="rows loaded: 284; Agency: PARKS DEPARTMENT" role="graphics-symbol" aria-roledescription="point" transform="translate(0.1065,110)" d="M-2.739,0L0,-2.739L2.739,0L0,2.739Z" stroke="#4c78a8" stroke-width="2" opacity="0.7"/><path aria-label="rows loaded: 284; Agency: PARKS DEPARTMENT" role="graphics-symbol" aria-roledescription="point" transform="translate(0.1065,110)" d="M-2.739,0L0,-2.739L2.739,0L0,2.739Z" stroke="#4c78a8" stroke-width="2" opacity="0.7"/><path aria-label="rows loaded: 284; Agency: PARKS DEPARTMENT" role="graphics-symbol" aria-roledescription="point" transform="translate(0.1065,110)" d="M-2.739,0L0,-2.739L2.739,0L0,2.739Z" stroke="#4c78a8" stroke-width="2" opacity="0.7"/><path aria-label="rows loaded: 184; Agency: LONG ISLAND RAILROAD" role="graphics-symbol" aria-roledescription="point" transform="translate(0.069,190)" d="M-2.739,0L0,-2.739L2.739,0L0,2.739Z" stroke="#4c78a8" stroke-width="2" opacity="0.7"/><path aria-label="rows loaded: 184; Agency: LONG ISLAND RAILROAD" role="graphics-symbol" aria-roledescription="point" transform="translate(0.069,190)" d="M-2.739,0L0,-2.739L2.739,0L0,2.739Z" stroke="#4c78a8" stroke-width="2" opacity="0.7"/><path aria-label="rows loaded: 184; Agency: LONG ISLAND RAILROAD" role="graphics-symbol" aria-roledescription="point" transform="translate(0.069,190)" d="M-2.739,0L0,-2.739L2.739,0L0,2.739Z" stroke="#4c78a8" stroke-width="2" opacity="0.7"/><path aria-label="rows loaded: 184; Agency: LONG ISLAND RAILROAD" role="graphics-symbol" aria-roledescription="point" transform="translate(0.069,190)" d="M-2.739,0L0,-2.739L2.739,0L0,2.739Z" stroke="#4c78a8" stroke-width="2" opacity="0.7"/><path aria-label="rows loaded: 184; Agency: LONG ISLAND RAILROAD" role="graphics-symbol" aria-roledescription="point" transform="translate(0.069,190)" d="M-2.739,0L0,-2.739L2.739,0L0,2.739Z" stroke="#4c78a8" stroke-width="2" opacity="0.7"/><path aria-label="rows loaded: 337; Agency: TRANSIT AUTHORITY" role="graphics-symbol" aria-roledescription="point" transform="translate(0.12637500000000002,90)" d="M-2.739,0L0,-2.739L2.739,0L0,2.739Z" stroke="#4c78a8" stroke-width="2" opacity="0.7"/><path aria-label="rows loaded: 337; Agency: TRANSIT AUTHORITY" role="graphics-symbol" aria-roledescription="point" transform="translate(0.12637500000000002,90)" d="M-2.739,0L0,-2.739L2.739,0L0,2.739Z" stroke="#4c78a8" stroke-width="2" opacity="0.7"/><path aria-label="rows loaded: 337; Agency: TRANSIT AUTHORITY" role="graphics-symbol" aria-roledescription="point" transform="translate(0.12637500000000002,90)" d="M-2.739,0L0,-2.739L2.739,0L0,2.739Z" stroke="#4c78a8" stroke-width="2" opacity="0.7"/><path aria-label="rows loaded: 337; Agency: TRANSIT AUTHORITY" role="graphics-symbol" aria-roledescription="point" transform="translate(0.12637500000000002,90)" d="M-2.739,0L0,-2.739L2.739,0L0,2.739Z" stroke="#4c78a8" stroke-width="2" opacity="0.7"/><path aria-label="rows loaded: 337; Agency: TRANSIT AUTHORITY" role="graphics-symbol" aria-roledescription="point" transform="translate(0.12637500000000002,90)" d="M-2.739,0L0,-2.739L2.739,0L0,2.739Z" stroke="#4c78a8" stroke-width="2" opacity="0.7"/><path aria-label="rows loaded: 2; Agency: NYS PARKS POLICE" role="graphics-symbol" aria-roledescription="point" transform="translate(0.00075,390)" d="M-2.739,0L0,-2.739L2.739,0L0,2.739Z" stroke="#4c78a8" stroke-width="2" opacity="0.7"/><path aria-label="rows loaded: 2; Agency: NYS PARKS POLICE" role="graphics-symbol" aria-roledescription="point" transform="translate(0.00075,390)" d="M-2.739,0L0,-2.739L2.739,0L0,2.739Z" stroke="#4c78a8" stroke-width="2" opacity="0.7"/><path aria-label="rows loaded: 2; Agency: NYS PARKS POLICE" role="graphics-symbol" aria-roledescription="point" transform="translate(0.00075,390)" d="M-2.739,0L0,-2.739L2.739,0L0,2.739Z" stroke="#4c78a8" stroke-width="2" opacity="0.7"/><path aria-label="rows loaded: 2; Agency: NYS PARKS POLICE" role="graphics-symbol" aria-roledescription="point" transform="translate(0.00075,390)" d="M-2.739,0L0,-2.739L2.739,0L0,2.739Z" stroke="#4c78a8" stroke-width="2" opacity="0.7"/><path aria-label="rows loaded: 2; Agency: NYS PARKS POLICE" role="graphics-symbol" aria-roledescription="point" transform="translate(0.00075,390)" d="M-2.739,0L0,-2.739L2.739,0L0,2.739Z" stroke="#4c78a8" stroke-width="2" opacity="0.7"/><path aria-label="rows loaded: 90; Agency: NYS COURT OFFICERS" role="graphics-symbol" aria-roledescription="point" transform="translate(0.03375,230)" d="M-2.739,0L0,-2.739L2.739,0L0,2.739Z" stroke="#4c78a8" stroke-width="2" opacity="0.7"/><path aria-label="rows loaded: 90; Agency: NYS COURT OFFICERS" role="graphics-symbol" aria-roledescription="point" transform="translate(0.03375,230)" d="M-2.739,0L0,-2.739L2.739,0L0,2.739Z" stroke="#4c78a8" stroke-width="2" opacity="0.7"/><path aria-label="rows loaded: 90; Agency: NYS COURT OFFICERS" role="graphics-symbol" aria-roledescription="point" transform="translate(0.03375,230)" d="M-2.739,0L0,-2.739L2.739,0L0,2.739Z" stroke="#4c78a8" stroke-width="2" opacity="0.7"/><path aria-label="rows loaded: 90; Agency: NYS COURT OFFICERS" role="graphics-symbol" aria-roledescription="point" transform="translate(0.03375,230)" d="M-2.739,0L0,-2.739L2.739,0L0,2.739Z" stroke="#4c78a8" stroke-width="2" opacity="0.7"/><path aria-label="rows loaded: 90; Agency: NYS COURT OFFICERS" role="graphics-symbol" aria-roledescription="point" transform="translate(0.03375,230)" d="M-2.739,0L0,-2.739L2.739,0L0,2.739Z" stroke="#4c78a8" stroke-width="2" opacity="0.7"/><path aria-label="rows loaded: 13034; Agency: POLICE DEPARTMENT" role="graphics-symbol" aria-roledescription="point" transform="translate(4.8877500000000005,70)" d="M-2.739,0L0,-2.739L2.739,0L0,2.739Z" stroke="#4c78a8" stroke-width="2" opacity="0.7"/><path aria-label="rows loaded: 13034; Agency: POLICE DEPARTMENT" role="graphics-symbol" aria-roledescription="point" transform="translate(4.8877500000000005,70)" d="M-2.739,0L0,-2.739L2.739,0L0,2.739Z" stroke="#4c78a8" stroke-width="2" opacity="0.7"/><path aria-label="rows loaded: 13034; Agency: POLICE DEPARTMENT" role="graphics-symbol" aria-roledescription="point" transform="translate(4.8877500000000005,70)" d="M-2.739,0L0,-2.739L2.739,0L0,2.739Z" stroke="#4c78a8" stroke-width="2" opacity="0.7"/><path aria-label="rows loaded: 13034; Agency: POLICE DEPARTMENT" role="graphics-symbol" aria-roledescription="point" transform="translate(4.8877500000000005,70)" d="M-2.739,0L0,-2.739L2.739,0L0,2.739Z" stroke="#4c78a8" stroke-width="2" opacity="0.7"/><path aria-label="rows loaded: 13034; Agency: POLICE DEPARTMENT" role="graphics-symbol" aria-roledescription="point" transform="translate(4.8877500000000005,70)" d="M-2.739,0L0,-2.739L2.739,0L0,2.739Z" stroke="#4c78a8" stroke-width="2" opacity="0.7"/><path aria-label="rows loaded: 8; Agency: DEPARTMENT OF CORRECTION" role="graphics-symbol" aria-roledescription="point" transform="translate(0.003,330)" d="M-2.739,0L0,-2.739L2.739,0L0,2.739Z" stroke="#4c78a8" stroke-width="2" opacity="0.7"/><path aria-label="rows loaded: 8; Agency: DEPARTMENT OF CORRECTION" role="graphics-symbol" aria-roledescription="point" transform="translate(0.003,330)" d="M-2.739,0L0,-2.739L2.739,0L0,2.739Z" stroke="#4c78a8" stroke-width="2" opacity="0.7"/><path aria-label="rows loaded: 8; Agency: DEPARTMENT OF CORRECTION" role="graphics-symbol" aria-roledescription="point" transform="translate(0.003,330)" d="M-2.739,0L0,-2.739L2.739,0L0,2.739Z" stroke="#4c78a8" stroke-width="2" opacity="0.7"/><path aria-label="rows loaded: 8; Agency: DEPARTMENT OF CORRECTION" role="graphics-symbol" aria-roledescription="point" transform="translate(0.003,330)" d="M-2.739,0L0,-2.739L2.739,0L0,2.739Z" stroke="#4c78a8" stroke-width="2" opacity="0.7"/><path aria-label="rows loaded: 8; Agency: DEPARTMENT OF CORRECTION" role="graphics-symbol" aria-roledescription="point" transform="translate(0.003,330)" d="M-2.739,0L0,-2.739L2.739,0L0,2.739Z" stroke="#4c78a8" stroke-width="2" opacity="0.7"/><path aria-label="rows loaded: 26; Agency: NYC TRANSIT AUTHORITY MANAGERS" role="graphics-symbol" aria-roledescription="point" transform="translate(0.00975,290)" d="M-2.739,0L0,-2.739L2.739,0L0,2.739Z" stroke="#4c78a8" stroke-width="2" opacity="0.7"/><path aria-label="rows loaded: 26; Agency: NYC TRANSIT AUTHORITY MANAGERS" role="graphics-symbol" aria-roledescription="point" transform="translate(0.00975,290)" d="M-2.739,0L0,-2.739L2.739,0L0,2.739Z" stroke="#4c78a8" stroke-width="2" opacity="0.7"/><path aria-label="rows loaded: 26; Agency: NYC TRANSIT AUTHORITY MANAGERS" role="graphics-symbol" aria-roledescription="point" transform="translate(0.00975,290)" d="M-2.739,0L0,-2.739L2.739,0L0,2.739Z" stroke="#4c78a8" stroke-width="2" opacity="0.7"/><path aria-label="rows loaded: 26; Agency: NYC TRANSIT AUTHORITY MANAGERS" role="graphics-symbol" aria-roledescription="point" transform="translate(0.00975,290)" d="M-2.739,0L0,-2.739L2.739,0L0,2.739Z" stroke="#4c78a8" stroke-width="2" opacity="0.7"/><path aria-label="rows loaded: 26; Agency: NYC TRANSIT AUTHORITY MANAGERS" role="graphics-symbol" aria-roledescription="point" transform="translate(0.00975,290)" d="M-2.739,0L0,-2.739L2.739,0L0,2.739Z" stroke="#4c78a8" stroke-width="2" opacity="0.7"/><path aria-label="rows loaded: 51551; Agency: DEPARTMENT OF SANITATION" role="graphics-symbol" aria-roledescription="point" transform="translate(19.331625000000003,50)" d="M-2.739,0L0,-2.739L2.739,0L0,2.739Z" stroke="#4c78a8" stroke-width="2" opacity="0.7"/><path aria-label="rows loaded: 51551; Agency: DEPARTMENT OF SANITATION" role="graphics-symbol" aria-roledescription="point" transform="translate(19.331625000000003,50)" d="M-2.739,0L0,-2.739L2.739,0L0,2.739Z" stroke="#4c78a8" stroke-width="2" opacity="0.7"/><path aria-label="rows loaded: 51551; Agency: DEPARTMENT OF SANITATION" role="graphics-symbol" aria-roledescription="point" transform="translate(19.331625000000003,50)" d="M-2.739,0L0,-2.739L2.739,0L0,2.739Z" stroke="#4c78a8" stroke-width="2" opacity="0.7"/><path aria-label="rows loaded: 51551; Agency: DEPARTMENT OF SANITATION" role="graphics-symbol" aria-roledescription="point" transform="translate(19.331625000000003,50)" d="M-2.739,0L0,-2.739L2.739,0L0,2.739Z" stroke="#4c78a8" stroke-width="2" opacity="0.7"/><path aria-label="rows loaded: 51551; Agency: DEPARTMENT OF SANITATION" role="graphics-symbol" aria-roledescription="point" transform="translate(19.331625000000003,50)" d="M-2.739,0L0,-2.739L2.739,0L0,2.739Z" stroke="#4c78a8" stroke-width="2" opacity="0.7"/><path aria-label="rows loaded: 758079; Agency: TRAFFIC" role="graphics-symbol" aria-roledescription="point" transform="translate(284.279625,10)" d="M-2.739,0L0,-2.739L2.739,0L0,2.739Z" stroke="#4c78a8" stroke-width="2" opacity="0.7"/><path aria-label="rows loaded: 758079; Agency: TRAFFIC" role="graphics-symbol" aria-roledescription="point" transform="translate(284.279625,10)" d="M-2.739,0L0,-2.739L2.739,0L0,2.739Z" stroke="#4c78a8" stroke-width="2" opacity="0.7"/><path aria-label="rows loaded: 758079; Agency: TRAFFIC" role="graphics-symbol" aria-roledescription="point" transform="translate(284.279625,10)" d="M-2.739,0L0,-2.739L2.739,0L0,2.739Z" stroke="#4c78a8" stroke-width="2" opacity="0.7"/><path aria-label="rows loaded: 758079; Agency: TRAFFIC" role="graphics-symbol" aria-roledescription="point" transform="translate(284.279625,10)" d="M-2.739,0L0,-2.739L2.739,0L0,2.739Z" stroke="#4c78a8" stroke-width="2" opacity="0.7"/><path aria-label="rows loaded: 758079; Agency: TRAFFIC" role="graphics-symbol" aria-roledescription="point" transform="translate(284.279625,10)" d="M-2.739,0L0,-2.739L2.739,0L0,2.739Z" stroke="#4c78a8" stroke-width="2" opacity="0.7"/><path aria-label="rows loaded: 467271; Agency: DEPARTMENT OF TRANSPORTATION" role="graphics-symbol" aria-roledescription="point" transform="translate(175.226625,30)" d="M-2.739,0L0,-2.739L2.739,0L0,2.739Z" stroke="#4c78a8" stroke-width="2" opacity="0.7"/><path aria-label="rows loaded: 467271; Agency: DEPARTMENT OF TRANSPORTATION" role="graphics-symbol" aria-roledescription="point" transform="translate(175.226625,30)" d="M-2.739,0L0,-2.739L2.739,0L0,2.739Z" stroke="#4c78a8" stroke-width="2" opacity="0.7"/><path aria-label="rows loaded: 467271; Agency: DEPARTMENT OF TRANSPORTATION" role="graphics-symbol" aria-roledescription="point" transform="translate(175.226625,30)" d="M-2.739,0L0,-2.739L2.739,0L0,2.739Z" stroke="#4c78a8" stroke-width="2" opacity="0.7"/><path aria-label="rows loaded: 467271; Agency: DEPARTMENT OF TRANSPORTATION" role="graphics-symbol" aria-roledescription="point" transform="translate(175.226625,30)" d="M-2.739,0L0,-2.739L2.739,0L0,2.739Z" stroke="#4c78a8" stroke-width="2" opacity="0.7"/><path aria-label="rows loaded: 467271; Agency: DEPARTMENT OF TRANSPORTATION" role="graphics-symbol" aria-roledescription="point" transform="translate(175.226625,30)" d="M-2.739,0L0,-2.739L2.739,0L0,2.739Z" stroke="#4c78a8" stroke-width="2" opacity="0.7"/><path aria-label="rows loaded: 7; Agency: HEALTH DEPARTMENT POLICE" role="graphics-symbol" aria-roledescription="point" transform="translate(0.0026249999999999997,350)" d="M-2.739,0L0,-2.739L2.739,0L0,2.739Z" stroke="#4c78a8" stroke-width="2" opacity="0.7"/><path aria-label="rows loaded: 7; Agency: HEALTH DEPARTMENT POLICE" role="graphics-symbol" aria-roledescription="point" transform="translate(0.0026249999999999997,350)" d="M-2.739,0L0,-2.739L2.739,0L0,2.739Z" stroke="#4c78a8" stroke-width="2" opacity="0.7"/><path aria-label="rows loaded: 7; Agency: HEALTH DEPARTMENT POLICE" role="graphics-symbol" aria-roledescription="point" transform="translate(0.0026249999999999997,350)" d="M-2.739,0L0,-2.739L2.739,0L0,2.739Z" stroke="#4c78a8" stroke-width="2" opacity="0.7"/><path aria-label="rows loaded: 7; Agency: HEALTH DEPARTMENT POLICE" role="graphics-symbol" aria-roledescription="point" transform="translate(0.0026249999999999997,350)" d="M-2.739,0L0,-2.739L2.739,0L0,2.739Z" stroke="#4c78a8" stroke-width="2" opacity="0.7"/><path aria-label="rows loaded: 7; Agency: HEALTH DEPARTMENT POLICE" role="graphics-symbol" aria-roledescription="point" transform="translate(0.0026249999999999997,350)" d="M-2.739,0L0,-2.739L2.739,0L0,2.739Z" stroke="#4c78a8" stroke-width="2" opacity="0.7"/><path aria-label="rows loaded: 23; Agency: OTHER/UNKNOWN AGENCIES" role="graphics-symbol" aria-roledescription="point" transform="translate(0.008625,310)" d="M-2.739,0L0,-2.739L2.739,0L0,2.739Z" stroke="#4c78a8" stroke-width="2" opacity="0.7"/><path aria-label="rows loaded: 23; Agency: OTHER/UNKNOWN AGENCIES" role="graphics-symbol" aria-roledescription="point" transform="translate(0.008625,310)" d="M-2.739,0L0,-2.739L2.739,0L0,2.739Z" stroke="#4c78a8" stroke-width="2" opacity="0.7"/><path aria-label="rows loaded: 23; Agency: OTHER/UNKNOWN AGENCIES" role="graphics-symbol" aria-roledescription="point" transform="translate(0.008625,310)" d="M-2.739,0L0,-2.739L2.739,0L0,2.739Z" stroke="#4c78a8" stroke-width="2" opacity="0.7"/><path aria-label="rows loaded: 23; Agency: OTHER/UNKNOWN AGENCIES" role="graphics-symbol" aria-roledescription="point" transform="translate(0.008625,310)" d="M-2.739,0L0,-2.739L2.739,0L0,2.739Z" stroke="#4c78a8" stroke-width="2" opacity="0.7"/><path aria-label="rows loaded: 23; Agency: OTHER/UNKNOWN AGENCIES" role="graphics-symbol" aria-roledescription="point" transform="translate(0.008625,310)" d="M-2.739,0L0,-2.739L2.739,0L0,2.739Z" stroke="#4c78a8" stroke-width="2" opacity="0.7"/><path aria-label="rows loaded: 191; Agency: HEALTH AND HOSPITAL CORP. POLICE" role="graphics-symbol" aria-roledescription="point" transform="translate(0.071625,150)" d="M-2.739,0L0,-2.739L2.739,0L0,2.739Z" stroke="#4c78a8" stroke-width="2" opacity="0.7"/><path aria-label="rows loaded: 191; Agency: HEALTH AND HOSPITAL CORP. POLICE" role="graphics-symbol" aria-roledescription="point" transform="translate(0.071625,150)" d="M-2.739,0L0,-2.739L2.739,0L0,2.739Z" stroke="#4c78a8" stroke-width="2" opacity="0.7"/><path aria-label="rows loaded: 191; Agency: HEALTH AND HOSPITAL CORP. POLICE" role="graphics-symbol" aria-roledescription="point" transform="translate(0.071625,150)" d="M-2.739,0L0,-2.739L2.739,0L0,2.739Z" stroke="#4c78a8" stroke-width="2" opacity="0.7"/><path aria-label="rows loaded: 191; Agency: HEALTH AND HOSPITAL CORP. POLICE" role="graphics-symbol" aria-roledescription="point" transform="translate(0.071625,150)" d="M-2.739,0L0,-2.739L2.739,0L0,2.739Z" stroke="#4c78a8" stroke-width="2" opacity="0.7"/><path aria-label="rows loaded: 191; Agency: HEALTH AND HOSPITAL CORP. POLICE" role="graphics-symbol" aria-roledescription="point" transform="translate(0.071625,150)" d="M-2.739,0L0,-2.739L2.739,0L0,2.739Z" stroke="#4c78a8" stroke-width="2" opacity="0.7"/><path aria-label="rows loaded: 3; Agency: NYS OFFICE OF MENTAL HEALTH POLICE" role="graphics-symbol" aria-roledescription="point" transform="translate(0.0011250000000000001,370)" d="M-2.739,0L0,-2.739L2.739,0L0,2.739Z" stroke="#4c78a8" stroke-width="2" opacity="0.7"/><path aria-label="rows loaded: 3; Agency: NYS OFFICE OF MENTAL HEALTH POLICE" role="graphics-symbol" aria-roledescription="point" transform="translate(0.0011250000000000001,370)" d="M-2.739,0L0,-2.739L2.739,0L0,2.739Z" stroke="#4c78a8" stroke-width="2" opacity="0.7"/><path aria-label="rows loaded: 3; Agency: NYS OFFICE OF MENTAL HEALTH POLICE" role="graphics-symbol" aria-roledescription="point" transform="translate(0.0011250000000000001,370)" d="M-2.739,0L0,-2.739L2.739,0L0,2.739Z" stroke="#4c78a8" stroke-width="2" opacity="0.7"/><path aria-label="rows loaded: 3; Agency: NYS OFFICE OF MENTAL HEALTH POLICE" role="graphics-symbol" aria-roledescription="point" transform="translate(0.0011250000000000001,370)" d="M-2.739,0L0,-2.739L2.739,0L0,2.739Z" stroke="#4c78a8" stroke-width="2" opacity="0.7"/><path aria-label="rows loaded: 3; Agency: NYS OFFICE OF MENTAL HEALTH POLICE" role="graphics-symbol" aria-roledescription="point" transform="translate(0.0011250000000000001,370)" d="M-2.739,0L0,-2.739L2.739,0L0,2.739Z" stroke="#4c78a8" stroke-width="2" opacity="0.7"/><path aria-label="rows loaded: 215; Agency: ROOSEVELT ISLAND SECURITY" role="graphics-symbol" aria-roledescription="point" transform="translate(0.080625,130)" d="M-2.739,0L0,-2.739L2.739,0L0,2.739Z" stroke="#4c78a8" stroke-width="2" opacity="0.7"/><path aria-label="rows loaded: 215; Agency: ROOSEVELT ISLAND SECURITY" role="graphics-symbol" aria-roledescription="point" transform="translate(0.080625,130)" d="M-2.739,0L0,-2.739L2.739,0L0,2.739Z" stroke="#4c78a8" stroke-width="2" opacity="0.7"/><path aria-label="rows loaded: 215; Agency: ROOSEVELT ISLAND SECURITY" role="graphics-symbol" aria-roledescription="point" transform="translate(0.080625,130)" d="M-2.739,0L0,-2.739L2.739,0L0,2.739Z" stroke="#4c78a8" stroke-width="2" opacity="0.7"/><path aria-label="rows loaded: 215; Agency: ROOSEVELT ISLAND SECURITY" role="graphics-symbol" aria-roledescription="point" transform="translate(0.080625,130)" d="M-2.739,0L0,-2.739L2.739,0L0,2.739Z" stroke="#4c78a8" stroke-width="2" opacity="0.7"/><path aria-label="rows loaded: 215; Agency: ROOSEVELT ISLAND SECURITY" role="graphics-symbol" aria-roledescription="point" transform="translate(0.080625,130)" d="M-2.739,0L0,-2.739L2.739,0L0,2.739Z" stroke="#4c78a8" stroke-width="2" opacity="0.7"/><path aria-label="rows loaded: 190; Agency: NYC OFFICE OF THE SHERIFF" role="graphics-symbol" aria-roledescription="point" transform="translate(0.07125,170)" d="M-2.739,0L0,-2.739L2.739,0L0,2.739Z" stroke="#4c78a8" stroke-width="2" opacity="0.7"/><path aria-label="rows loaded: 190; Agency: NYC OFFICE OF THE SHERIFF" role="graphics-symbol" aria-roledescription="point" transform="translate(0.07125,170)" d="M-2.739,0L0,-2.739L2.739,0L0,2.739Z" stroke="#4c78a8" stroke-width="2" opacity="0.7"/><path aria-label="rows loaded: 190; Agency: NYC OFFICE OF THE SHERIFF" role="graphics-symbol" aria-roledescription="point" transform="translate(0.07125,170)" d="M-2.739,0L0,-2.739L2.739,0L0,2.739Z" stroke="#4c78a8" stroke-width="2" opacity="0.7"/><path aria-label="rows loaded: 190; Agency: NYC OFFICE OF THE SHERIFF" role="graphics-symbol" aria-roledescription="point" transform="translate(0.07125,170)" d="M-2.739,0L0,-2.739L2.739,0L0,2.739Z" stroke="#4c78a8" stroke-width="2" opacity="0.7"/><path aria-label="rows loaded: 190; Agency: NYC OFFICE OF THE SHERIFF" role="graphics-symbol" aria-roledescription="point" transform="translate(0.07125,170)" d="M-2.739,0L0,-2.739L2.739,0L0,2.739Z" stroke="#4c78a8" stroke-width="2" opacity="0.7"/></g><g class="mark-rect role-mark layer_1_marks" role="graphics-object" aria-roledescription="rect mark container"><path aria-label="rows loaded: 13; Agency: POLICE DEPARTMENT; date checked: May 01" role="graphics-symbol" aria-roledescription="tick" d="M-0.495125,62.5h1v15h-1Z" fill="rgb(175, 209, 231)" opacity="0.7"/><path aria-label="rows loaded: 13; Agency: POLICE DEPARTMENT; date checked: May 02" role="graphics-symbol" aria-roledescription="tick" d="M-0.495125,62.5h1v15h-1Z" fill="rgb(134, 188, 220)" opacity="0.7"/><path aria-label="rows loaded: 13; Agency: POLICE DEPARTMENT; date checked: May 03" role="graphics-symbol" aria-roledescription="tick" d="M-0.495125,62.5h1v15h-1Z" fill="rgb(91, 163, 207)" opacity="0.7"/><path aria-label="rows loaded: 13; Agency: POLICE DEPARTMENT; date checked: May 04" role="graphics-symbol" aria-roledescription="tick" d="M-0.495125,62.5h1v15h-1Z" fill="rgb(56, 135, 192)" opacity="0.7"/><path aria-label="rows loaded: 13; Agency: POLICE DEPARTMENT; date checked: May 05" role="graphics-symbol" aria-roledescription="tick" d="M-0.495125,62.5h1v15h-1Z" fill="rgb(27, 105, 173)" opacity="0.7"/></g><g class="mark-group role-legend" role="graphics-symbol" aria-roledescription="legend" aria-label="Symbol legend titled 'date checked' for fill color with 5 values: May 01, May 02, May 03, May 04, May 05"><g transform="translate(318,0)"><path class="background" aria-hidden="true" d="M0,0h70v79h-70Z" pointer-events="none"/><g><g class="mark-group role-legend-entry"><g transform="translate(0,16)"><path class="background" aria-hidden="true" d="M0,0h0v0h0Z" pointer-events="none"/><g><g class="mark-group role-scope" role="graphics-object" aria-roledescription="group mark container"><g transform="translate(0,0)"><path class="background" aria-hidden="true" d="M0,0h48.79296875v11h-48.79296875Z" pointer-events="none" opacity="1"/><g><g class="mark-symbol role-legend-symbol" pointer-events="none"><path transform="translate(6,6)" d="M5,0A5,5,0,1,1,-5,0A5,5,0,1,1,5,0" fill="rgb(175, 209, 231)" stroke-width="1.5" opacity="0.7"/></g><g class="mark-text role-legend-label" pointer-events="none"><text text-anchor="start" transform="translate(16,9)" font-family="sans-serif" font-size="10px" fill="#000" opacity="1">May 01</text></g></g><path class="foreground" aria-hidden="true" d="" pointer-events="none" display="none"/></g><g transform="translate(0,13)"><path class="background" aria-hidden="true" d="M0,0h48.79296875v11h-48.79296875Z" pointer-events="none" opacity="1"/><g><g class="mark-symbol role-legend-symbol" pointer-events="none"><path transform="translate(6,6)" d="M5,0A5,5,0,1,1,-5,0A5,5,0,1,1,5,0" fill="rgb(134, 188, 220)" stroke-width="1.5" opacity="0.7"/></g><g class="mark-text role-legend-label" pointer-events="none"><text text-anchor="start" transform="translate(16,9)" font-family="sans-serif" font-size="10px" fill="#000" opacity="1">May 02</text></g></g><path class="foreground" aria-hidden="true" d="" pointer-events="none" display="none"/></g><g transform="translate(0,26)"><path class="background" aria-hidden="true" d="M0,0h48.79296875v11h-48.79296875Z" pointer-events="none" opacity="1"/><g><g class="mark-symbol role-legend-symbol" pointer-events="none"><path transform="translate(6,6)" d="M5,0A5,5,0,1,1,-5,0A5,5,0,1,1,5,0" fill="rgb(91, 163, 207)" stroke-width="1.5" opacity="0.7"/></g><g class="mark-text role-legend-label" pointer-events="none"><text text-anchor="start" transform="translate(16,9)" font-family="sans-serif" font-size="10px" fill="#000" opacity="1">May 03</text></g></g><path class="foreground" aria-hidden="true" d="" pointer-events="none" display="none"/></g><g transform="translate(0,39)"><path class="background" aria-hidden="true" d="M0,0h48.79296875v11h-48.79296875Z" pointer-events="none" opacity="1"/><g><g class="mark-symbol role-legend-symbol" pointer-events="none"><path transform="translate(6,6)" d="M5,0A5,5,0,1,1,-5,0A5,5,0,1,1,5,0" fill="rgb(56, 135, 192)" stroke-width="1.5" opacity="0.7"/></g><g class="mark-text role-legend-label" pointer-events="none"><text text-anchor="start" transform="translate(16,9)" font-family="sans-serif" font-size="10px" fill="#000" opacity="1">May 04</text></g></g><path class="foreground" aria-hidden="true" d="" pointer-events="none" display="none"/></g><g transform="translate(0,52)"><path class="background" aria-hidden="true" d="M0,0h48.79296875v11h-48.79296875Z" pointer-events="none" opacity="1"/><g><g class="mark-symbol role-legend-symbol" pointer-events="none"><path transform="translate(6,6)" d="M5,0A5,5,0,1,1,-5,0A5,5,0,1,1,5,0" fill="rgb(27, 105, 173)" stroke-width="1.5" opacity="0.7"/></g><g class="mark-text role-legend-label" pointer-events="none"><text text-anchor="start" transform="translate(16,9)" font-family="sans-serif" font-size="10px" fill="#000" opacity="1">May 05</text></g></g><path class="foreground" aria-hidden="true" d="" pointer-events="none" display="none"/></g></g></g><path class="foreground" aria-hidden="true" d="" pointer-events="none" display="none"/></g></g><g class="mark-text role-legend-title" pointer-events="none"><text text-anchor="start" transform="translate(0,9)" font-family="sans-serif" font-size="11px" font-weight="bold" fill="#000" opacity="1">date checked</text></g></g><path class="foreground" aria-hidden="true" d="" pointer-events="none" display="none"/></g></g></g><path class="foreground" aria-hidden="true" d="" display="none"/></g></g></g></svg>